<svg xmlns="http://www.w3.org/2000/svg" viewBox="0 0 30 30">
  <path d="M4 5 A 1.0001 1.0001 0 1 0 4 7L4.5234375 7L3.2675781 10.142578C2.5259558 10.435078 2 11.154141 2 12L2 15.550781C2 16.415781 2.5549531 17.182172 3.3769531 17.451172L4.2382812 17.734375C4.7424735 19.051297 6.0140454 20 7.5 20C8.8831519 20 10.0777 19.175306 10.644531 18L20.355469 18C20.9223 19.175306 22.116848 20 23.5 20C25.042277 20 26.347277 18.97536 26.808594 17.580078L28 17L28 13.095703C28 12.157703 27.349594 11.343578 26.433594 11.142578C25.570396 10.952877 24.418548 10.718881 23.195312 10.490234L21.019531 7.2265625C20.093551 5.8357175 18.53021 5 16.859375 5L9 5L4 5 z M 6.6777344 7L9 7L11 7L11 10L5.4765625 10L6.6777344 7 z M 13 7L16.859375 7C17.86454 7 18.799449 7.5007825 19.355469 8.3359375L20.488281 10.033203C20.421057 10.023515 20.351955 10.009333 20.285156 10L13 10L13 7 z M 7.5 15C8.3402718 15 9 15.659728 9 16.5C9 17.340272 8.3402718 18 7.5 18C6.6597282 18 6 17.340272 6 16.5C6 15.659728 6.6597282 15 7.5 15 z M 23.5 15C24.340272 15 25 15.659728 25 16.5C25 17.340272 24.340272 18 23.5 18C22.659728 18 22 17.340272 22 16.5C22 15.659728 22.659728 15 23.5 15 z M 12 20 A 1.0001 1.0001 0 1 0 12 22L14 22L14 27L17 27L17 22L19 22 A 1.0001 1.0001 0 1 0 19 20L12 20 z" fill="#FFFFFF" />
</svg>