<svg xmlns="http://www.w3.org/2000/svg" viewBox="0 0 30 30">
  <path d="M6 4C4.895 4 4 4.895 4 6L4 24C4 25.105 4.895 26 6 26L24 26C24.178 26 24.346719 25.968781 24.511719 25.925781L21.292969 22.707031C21.290969 22.705031 21.289109 22.701219 21.287109 22.699219C20.895109 22.886219 20.463 23 20 23C18.343 23 17 21.657 17 20C17 18.343 18.343 17 20 17C21.657 17 23 18.343 23 20C23 20.463 22.886219 20.895109 22.699219 21.287109C22.701219 21.289109 22.705031 21.290969 22.707031 21.292969L25.925781 24.511719C25.968781 24.346719 26 24.178 26 24L26 6C26 4.895 25.105 4 24 4L17.345703 4C17.303703 4.071 17.269031 4.1460313 17.207031 4.2070312L12.707031 8.7070312C12.705031 8.7090313 12.701219 8.7108906 12.699219 8.7128906C12.886219 9.1048906 13 9.537 13 10C13 11.657 11.657 13 10 13C8.343 13 7 11.657 7 10C7 8.343 8.343 7 10 7C10.463 7 10.895109 7.1137813 11.287109 7.3007812C11.289109 7.2987813 11.290969 7.2949687 11.292969 7.2929688L14.585938 4L6 4 z M 20 7C21.657 7 23 8.343 23 10C23 11.657 21.657 13 20 13C19.537 13 19.104891 12.886219 18.712891 12.699219C18.710891 12.701219 18.709031 12.705031 18.707031 12.707031L12.699219 18.714844C12.886219 19.105844 13 19.538 13 20C13 21.657 11.657 23 10 23C8.343 23 7 21.657 7 20C7 18.343 8.343 17 10 17C10.462 17 10.894156 17.113781 11.285156 17.300781L17.292969 11.292969C17.294969 11.290969 17.298781 11.289109 17.300781 11.287109C17.113781 10.895109 17 10.463 17 10C17 8.343 18.343 7 20 7 z M 10 9 A 1 1 0 0 0 9 10 A 1 1 0 0 0 10 11 A 1 1 0 0 0 11 10 A 1 1 0 0 0 10 9 z M 20 9 A 1 1 0 0 0 19 10 A 1 1 0 0 0 20 11 A 1 1 0 0 0 21 10 A 1 1 0 0 0 20 9 z M 10 19 A 1 1 0 0 0 9 20 A 1 1 0 0 0 10 21 A 1 1 0 0 0 11 20 A 1 1 0 0 0 10 19 z M 20 19 A 1 1 0 0 0 19 20 A 1 1 0 0 0 20 21 A 1 1 0 0 0 21 20 A 1 1 0 0 0 20 19 z" fill="#FFFFFF" />
</svg>