<svg xmlns="http://www.w3.org/2000/svg" viewBox="0 0 30 30">
  <path d="M19.980469 2.9902344 A 1.0001 1.0001 0 0 0 19.292969 3.2929688L15 7.5859375L11.707031 4.2929688 A 1.0001 1.0001 0 0 0 10.990234 3.9902344 A 1.0001 1.0001 0 0 0 10.292969 5.7070312L14.150391 9.5644531 A 1.0001 1.0001 0 0 0 14.439453 9.8535156L20.150391 15.564453 A 1.0001 1.0001 0 0 0 20.439453 15.853516L24.292969 19.707031 A 1.0001 1.0001 0 1 0 25.707031 18.292969L22.414062 15L26.707031 10.707031 A 1.0001 1.0001 0 0 0 25.980469 8.9902344 A 1.0001 1.0001 0 0 0 25.292969 9.2929688L21 13.585938L16.414062 9L20.707031 4.7070312 A 1.0001 1.0001 0 0 0 19.980469 2.9902344 z M 9.6035156 7.7207031L5.4648438 11.859375C3.5118437 13.812375 3.5118437 16.978641 5.4648438 18.931641L5.6699219 19.136719L5.3867188 19.419922C4.4337187 20.372922 4.4337187 21.918094 5.3867188 22.871094L5.5507812 23.035156L3.2929688 25.292969 A 1.0001 1.0001 0 1 0 4.7070312 26.707031L6.9648438 24.449219L7.1308594 24.615234C8.0838594 25.568234 9.6270781 25.568234 10.580078 24.615234L10.865234 24.332031L11.068359 24.535156C13.021359 26.488156 16.187625 26.488156 18.140625 24.535156L22.279297 20.396484L9.6035156 7.7207031 z M 10 14C10.552 14 11 14.448 11 15C11 15.552 10.552 16 10 16C9.448 16 9 15.552 9 15C9 14.448 9.448 14 10 14 z M 15 19C15.552 19 16 19.448 16 20C16 20.552 15.552 21 15 21C14.448 21 14 20.552 14 20C14 19.448 14.448 19 15 19 z" fill="#FFFFFF" />
</svg>