<svg xmlns="http://www.w3.org/2000/svg" viewBox="0 0 30 30">
  <path d="M11.003906 2 A 1.0001 1.0001 0 0 0 10.408203 2.1933594C10.408203 2.1933594 8.3287794 3.7130481 7.4492188 4.4667969C6.7256671 5.0868519 6.4147281 5.7373123 6.2382812 6.1992188L3.6835938 7.0507812 A 1.0001 1.0001 0 0 0 3.0058594 8.1035156C3.0058594 8.1035156 3.3271976 11.548349 6.015625 13.953125C7.130912 14.95074 9.3293862 17.189936 11.359375 19.269531C12.374369 20.309329 13.35258 21.313949 14.154297 22.121094C14.956014 22.928239 15.533058 23.503627 15.935547 23.828125C16.944348 24.641042 19.218018 27 22.675781 27C23.536685 27 24.474449 26.95825 25.351562 26.564453C26.228676 26.170658 27 25.197466 27 24C27 22.280355 25.926855 21.203445 25.150391 20.537109C24.762158 20.203941 24.44046 19.92892 24.255859 19.693359C24.071259 19.457798 24 19.306016 24 19 A 1.0001 1.0001 0 0 0 22.884766 17.992188C22.884766 17.992188 22.882812 17.992188 22.882812 17.992188C20.681409 17.909184 18 15.494257 18 12C18 11.086 18.336 9.297 20 9 A 1.0001 1.0001 0 0 0 21 8L21 7L21 6C21 4.895 20.105 4 19 4C17.895 4 17 4.895 17 6L17 6.9433594C16.547622 6.8957035 16.072112 6.8122972 15.634766 6.640625C14.841967 6.3294266 14.240318 5.8755102 13.972656 4.765625C13.46464 2.6552936 11.300781 2.046875 11.300781 2.046875 A 1.0001 1.0001 0 0 0 11.003906 2 z M 11.109375 4.1757812C11.457595 4.3690796 11.893155 4.6769455 12.027344 5.234375C12.448682 6.9814898 13.695345 8.0274016 14.904297 8.5019531C15.00179 8.5402223 15.096268 8.5591701 15.193359 8.5917969C15.474849 8.7419804 16 9.1340026 16 10C16 10.73 15.423 10.992188 15 10.992188C14.039 10.992188 13.56 10 13 10C12.44 10 12 10.316 12 11C12 12.09 14.020109 13.495719 14.662109 14.511719C14.882109 14.866719 14.815937 15.33975 14.460938 15.59375C14.133937 15.82675 13.255 15.302 13 15C14.52254 18.045081 18.937693 22.821173 21.84375 24.931641C19.750647 24.614507 18.306178 23.169795 17.191406 22.271484C17.015895 22.129982 16.362861 21.506886 15.572266 20.710938C14.78167 19.914988 13.804819 18.913624 12.789062 17.873047C10.757551 15.791892 8.5943224 13.574323 7.3496094 12.460938C5.8010627 11.075775 5.3680419 9.4956975 5.1914062 8.6582031L6.6816406 8.1601562L8.1503906 10.015625 A 1.0001 1.0001 0 1 0 9.71875 8.7753906L8.1640625 6.8125C8.3028716 6.5317078 8.4992012 6.2012527 8.75 5.9863281C9.3200126 5.4978499 10.588694 4.5622564 11.109375 4.1757812 z M 21.984375 9.9863281 A 1.0001 1.0001 0 0 0 21 11 A 1.0001 1.0001 0 1 0 21 13C21.64659 13 22.225369 12.665868 22.544922 12.265625C22.864475 11.865382 23 11.449141 23 11 A 1.0001 1.0001 0 0 0 21.984375 9.9863281 z M 22.984375 12.986328 A 1.0001 1.0001 0 0 0 22 14 A 1.0001 1.0001 0 1 0 22 16C22.64659 16 23.225369 15.665868 23.544922 15.265625C23.864475 14.865382 24 14.449141 24 14 A 1.0001 1.0001 0 0 0 22.984375 12.986328 z M 22.191406 20.042969C22.315294 20.37964 22.487329 20.679782 22.681641 20.927734C23.05954 21.409955 23.487842 21.74423 23.849609 22.054688C24.573145 22.675601 25 23.021645 25 24C25 24.416184 24.946563 24.529144 24.75 24.636719C23.26955 24.128861 21 23.032787 21 21.005859C21 20.312537 21.574279 20.109652 22.191406 20.042969 z M 25.972656 26.224609C25.944656 26.273609 25.921672 26.324094 25.888672 26.371094C25.920672 26.324094 25.943656 26.273609 25.972656 26.224609 z M 25.722656 26.570312C25.673656 26.628312 25.629219 26.690141 25.574219 26.744141C25.580219 26.738141 25.58775 26.732563 25.59375 26.726562C25.64275 26.677563 25.678656 26.622312 25.722656 26.570312 z M 21.701172 27.255859C21.752172 27.280859 21.801563 27.302219 21.851562 27.324219C21.802563 27.303219 21.752172 27.279859 21.701172 27.255859 z" fill="#FFFFFF" />
</svg>