<svg xmlns="http://www.w3.org/2000/svg" viewBox="0 0 30 30">
  <path d="M12 3 A 1.0001 1.0001 0 0 0 11.757812 3.0292969L3.7578125 5.0292969 A 1.0001 1.0001 0 0 0 3 6L3 10 A 1.0001 1.0001 0 0 0 4 11L7 11L7 26 A 1.0001 1.0001 0 0 0 8 27L22 27 A 1.0001 1.0001 0 0 0 23 26L23 11L26 11 A 1.0001 1.0001 0 0 0 27 10L27 6 A 1.0001 1.0001 0 0 0 26.242188 5.0292969L18.242188 3.0292969 A 1.0001 1.0001 0 0 0 18 3L12 3 z M 12.162109 5L17.837891 5C17.573277 6.1843563 16.872691 8 15 8C13.127309 8 12.426723 6.1843563 12.162109 5 z" fill="#FFFFFF" />
</svg>