<svg xmlns="http://www.w3.org/2000/svg" viewBox="0 0 30 30">
  <path d="M5 3C3.895 3 3 3.895 3 5L3 25C3 26.105 3.895 27 5 27L9.5566406 27C9.2126406 26.409 9 25.732 9 25L5 25L5 5L7 5L7.4140625 5.4140625C7.7890625 5.7890625 8.298125 6 8.828125 6L9 6L9 5C9 4.268 9.2126406 3.591 9.5566406 3L5 3 z M 13 3C11.895 3 11 3.895 11 5L11 25C11 26.105 11.895 27 13 27L25 27C26.105 27 27 26.105 27 25L27 5C27 3.895 26.105 3 25 3L13 3 z M 17.5 4L19.5 4C19.776 4 20 4.224 20 4.5C20 4.776 19.776 5 19.5 5L17.5 5C17.224 5 17 4.776 17 4.5C17 4.224 17.224 4 17.5 4 z M 21.5 4C21.776 4 22 4.224 22 4.5C22 4.776 21.776 5 21.5 5C21.224 5 21 4.776 21 4.5C21 4.224 21.224 4 21.5 4 z M 13 5L15 5L15.414062 5.4140625C15.789062 5.7890625 16.298125 6 16.828125 6L21.171875 6C21.701875 6 22.210938 5.7890625 22.585938 5.4140625L23 5L25 5L25 25L13 25L13 5 z" fill="#FFFFFF" />
</svg>