<svg xmlns="http://www.w3.org/2000/svg" viewBox="0 0 30 30">
  <path d="M5.0703125 4.0117188C4.9412344 3.9967344 4.8063281 4.0061719 4.6738281 4.0449219L3.7148438 4.3261719C3.1848437 4.4811719 2.8791563 5.0364062 3.0351562 5.5664062L6.0683594 15.921875C6.3013594 16.717875 7.1366406 17.173453 7.9316406 16.939453C8.7266406 16.706453 9.1802656 15.873125 8.9472656 15.078125L5.9140625 4.7246094C5.7978125 4.3271094 5.4575469 4.0566719 5.0703125 4.0117188 z M 19.5 5 A 3.5 3.5 0 0 0 16 8.5 A 3.5 3.5 0 0 0 19.5 12 A 3.5 3.5 0 0 0 23 8.5 A 3.5 3.5 0 0 0 19.5 5 z M 21.5 14 A 3.5 3.5 0 0 0 19.511719 14.625L14.09375 18.015625L6.9667969 19.001953 A 1.0001 1.0001 0 0 0 7 21L15 21 A 1.0001 1.0001 0 0 0 15.375 20.925781L18.416016 20.228516L20 27L27 27C27 26.638645 26.929802 26.296678 26.828125 25.96875L26.863281 25.962891L24.998047 17.550781 A 3.5 3.5 0 0 0 25 17.5 A 3.5 3.5 0 0 0 21.5 14 z M 4.5 24 A 1.5 1.5 0 0 0 3 25.5 A 1.5 1.5 0 0 0 4.5 27 A 1.5 1.5 0 0 0 6 25.5 A 1.5 1.5 0 0 0 4.5 24 z" fill="#FFFFFF" />
</svg>