<svg xmlns="http://www.w3.org/2000/svg" viewBox="0 0 30 30">
  <path d="M20.5 3 A 2.5 2.5 0 0 0 18 5.5 A 2.5 2.5 0 0 0 20.5 8 A 2.5 2.5 0 0 0 23 5.5 A 2.5 2.5 0 0 0 20.5 3 z M 18.498047 9C18.104613 9 17.737373 9.0995794 17.40625 9.2617188 A 1.0001 1.0001 0 0 0 17.0625 9.4453125L14.0625 11.835938 A 1.0001 1.0001 0 0 0 13.902344 11.996094L11.216797 15.378906 A 1.0001 1.0001 0 1 0 12.783203 16.621094L12.810547 16.585938L12.808594 16.59375L14.919922 14.271484L15.4375 13.957031C15.289417 14.746573 15.053767 15.984674 15.052734 15.990234C15.052311 15.992278 15.0512 15.994048 15.050781 15.996094C15.050781 15.996098 15.050781 16 15.050781 16C15.017985 16.161534 15 16.328824 15 16.5C15 17.271024 15.357278 17.951446 15.90625 18.410156L15.914062 18.433594L19.806641 21.5L20.917969 25.689453L21.011719 26.160156 A 1 1 0 0 0 22 27 A 1 1 0 0 0 23 26 A 1 1 0 0 0 22.980469 25.804688L21.980469 20.804688 A 1.0001 1.0001 0 0 0 21.820312 20.427734L19.949219 17.003906C19.951019 16.995104 19.949465 16.985398 19.951172 16.976562L20.933594 12.0625L20.931641 12.060547C20.97318 11.879786 21 11.693331 21 11.5C21 10.120659 19.880133 9.0010696 18.498047 9 z M 22.384766 12.742188L21.916016 15.007812L22.332031 15.380859C22.407031 15.448859 22.493938 15.505875 22.585938 15.546875L25.585938 16.910156 A 1 1 0 0 0 26 17 A 1 1 0 0 0 27 16 A 1 1 0 0 0 26.414062 15.089844L26.388672 15.078125 A 1 1 0 0 1 26.386719 15.078125L23.552734 13.789062L22.384766 12.742188 z M 10.6875 17.001953C10.298063 16.991125 9.9197969 17.209891 9.7480469 17.587891L9.0976562 19.011719L7.2753906 18.185547C6.7873906 17.963547 6.2441406 17.944766 5.7441406 18.134766C5.2441406 18.322766 4.8479063 18.694734 4.6289062 19.177734L3.1796875 22.347656C2.7246875 23.351656 3.1707813 24.539094 4.1757812 24.996094L5.0976562 25.414062C5.3486562 24.597063 6.101 24 7 24C7.675 24 8.2678594 24.335656 8.6308594 24.847656C8.6338594 24.840656 8.6395781 24.835125 8.6425781 24.828125L11.568359 18.417969C11.797359 17.915969 11.575266 17.320797 11.072266 17.091797C10.947016 17.035047 10.817312 17.005562 10.6875 17.001953 z M 14.957031 19.724609L14.443359 21.421875L12.214844 25.361328L12.140625 25.486328L12.142578 25.488281 A 1 1 0 0 0 12.109375 25.546875L12.101562 25.5625 A 1 1 0 0 0 12 26 A 1 1 0 0 0 13 27 A 1 1 0 0 0 13.808594 26.587891L13.810547 26.587891L13.826172 26.564453 A 1 1 0 0 1 13.828125 26.5625L17.154297 21.511719L14.957031 19.724609 z M 7 25 A 1 1 0 0 0 6 26 A 1 1 0 0 0 7 27 A 1 1 0 0 0 8 26 A 1 1 0 0 0 7 25 z" fill="#FFFFFF" />
</svg>