<svg xmlns="http://www.w3.org/2000/svg" viewBox="0 0 30 30">
  <path d="M9 2L7 9L7.0136719 9C7.0337143 8.9733537 7.0578251 8.9502682 7.078125 8.9238281C5.7806994 10.610705 5 12.713919 5 15C5 17.286081 5.7806994 19.389295 7.078125 21.076172C7.0578251 21.049732 7.0337143 21.026646 7.0136719 21L7 21L9 28L21 28L23 21L22.986328 21C22.966286 21.026646 22.942175 21.049732 22.921875 21.076172C23.831784 19.893134 24.490699 18.508252 24.798828 16.994141 A 1.0001 1.0001 0 0 0 26 16L26 14 A 1.0001 1.0001 0 0 0 24.984375 12.986328 A 1.0001 1.0001 0 0 0 24.798828 13.007812C24.490856 11.492974 23.83216 10.107355 22.921875 8.9238281C22.942175 8.9502682 22.966286 8.9733537 22.986328 9L23 9L21 2L9 2 z M 13.890625 5.0664062C13.757489 5.0812182 13.627621 5.1069382 13.496094 5.1269531C13.627891 5.1069098 13.75717 5.0812254 13.890625 5.0664062 z M 16.109375 5.0664062C16.24283 5.0812254 16.372109 5.1069098 16.503906 5.1269531C16.372379 5.1069382 16.242511 5.0812182 16.109375 5.0664062 z M 12.792969 5.2539062C12.652714 5.2857128 12.514925 5.3236721 12.376953 5.3613281C12.515019 5.3236138 12.652574 5.2857559 12.792969 5.2539062 z M 17.207031 5.2539062C17.347426 5.2857559 17.484981 5.3236138 17.623047 5.3613281C17.485075 5.3236721 17.347286 5.2857128 17.207031 5.2539062 z M 11.730469 5.5605469C11.60313 5.604846 11.476522 5.6499636 11.351562 5.6992188C11.476463 5.6499315 11.603159 5.6048728 11.730469 5.5605469 z M 18.269531 5.5605469C18.396841 5.6048728 18.523537 5.6499315 18.648438 5.6992188C18.523478 5.6499636 18.39687 5.604846 18.269531 5.5605469 z M 10.697266 5.9863281C10.588384 6.0385689 10.477764 6.0885053 10.371094 6.1445312C10.477958 6.088288 10.588161 6.0387624 10.697266 5.9863281 z M 19.302734 5.9863281C19.411839 6.0387624 19.522042 6.088288 19.628906 6.1445312C19.522236 6.0885053 19.411616 6.0385689 19.302734 5.9863281 z M 9.5976562 6.5996094C9.5535066 6.6281154 9.5065618 6.6524623 9.4628906 6.6816406C9.5065765 6.6523795 9.5534885 6.628196 9.5976562 6.5996094 z M 20.402344 6.5996094C20.446512 6.628196 20.493423 6.6523795 20.537109 6.6816406C20.493438 6.6524623 20.446493 6.6281154 20.402344 6.5996094 z M 15 7C19.430123 7 23 10.569877 23 15C23 19.430123 19.430123 23 15 23C10.569877 23 7 19.430123 7 15C7 10.569877 10.569877 7 15 7 z M 7.7910156 8.0898438C7.7473237 8.1354042 7.7068967 8.1840925 7.6640625 8.2304688C7.7069232 8.1839633 7.7472958 8.1355315 7.7910156 8.0898438 z M 22.208984 8.0898438C22.252704 8.1355315 22.293077 8.1839633 22.335938 8.2304688C22.293103 8.1840925 22.252676 8.1354042 22.208984 8.0898438 z M 14.984375 9.9863281 A 1.0001 1.0001 0 0 0 14 11L14 14.585938L11.792969 16.792969 A 1.0001 1.0001 0 1 0 13.207031 18.207031L15.707031 15.707031 A 1.0001 1.0001 0 0 0 16 15L16 11 A 1.0001 1.0001 0 0 0 14.984375 9.9863281 z M 7.6640625 21.769531C7.7068967 21.815908 7.7473237 21.864596 7.7910156 21.910156C7.7472958 21.864469 7.7069232 21.816037 7.6640625 21.769531 z M 22.335938 21.769531C22.293077 21.816037 22.252704 21.864469 22.208984 21.910156C22.252676 21.864596 22.293103 21.815908 22.335938 21.769531 z M 9.4628906 23.318359C9.5065618 23.347538 9.5535066 23.371885 9.5976562 23.400391C9.5534885 23.371804 9.5065765 23.347621 9.4628906 23.318359 z M 20.537109 23.318359C20.493423 23.347621 20.446512 23.371804 20.402344 23.400391C20.446493 23.371885 20.493438 23.347538 20.537109 23.318359 z M 10.371094 23.855469C10.477764 23.911495 10.588384 23.961431 10.697266 24.013672C10.588161 23.961238 10.477958 23.911712 10.371094 23.855469 z M 19.628906 23.855469C19.522042 23.911712 19.411839 23.961238 19.302734 24.013672C19.411616 23.961431 19.522236 23.911495 19.628906 23.855469 z M 11.351562 24.300781C11.476522 24.350036 11.60313 24.395154 11.730469 24.439453C11.603159 24.395127 11.476463 24.350069 11.351562 24.300781 z M 18.648438 24.300781C18.523537 24.350069 18.396841 24.395127 18.269531 24.439453C18.39687 24.395154 18.523478 24.350036 18.648438 24.300781 z M 12.376953 24.638672C12.514925 24.676328 12.652714 24.714287 12.792969 24.746094C12.652574 24.714244 12.515019 24.676386 12.376953 24.638672 z M 17.623047 24.638672C17.484981 24.676386 17.347426 24.714244 17.207031 24.746094C17.347286 24.714287 17.485075 24.676328 17.623047 24.638672 z M 13.496094 24.873047C13.627621 24.893062 13.757489 24.918782 13.890625 24.933594C13.75717 24.918775 13.627891 24.89309 13.496094 24.873047 z M 16.503906 24.873047C16.372109 24.89309 16.24283 24.918775 16.109375 24.933594C16.242511 24.918782 16.372379 24.893062 16.503906 24.873047 z" fill="#FFFFFF" />
</svg>